<svg width="170" height="40" viewBox="0 0 170 40" fill="none" xmlns="http://www.w3.org/2000/svg">
<path d="M14.1325 22.9688H6.64812L5.7575 25.0312C5.46583 25.7188 5.32 26.2865 5.32 26.7344C5.32 27.3281 5.55958 27.7656 6.03875 28.0469C6.32 28.2135 7.01271 28.3385 8.11687 28.4219V29H1.07V28.4219C1.83042 28.3073 2.45542 27.9948 2.945 27.4844C3.43458 26.9635 4.03875 25.8958 4.7575 24.2812L12.3356 7.375H12.6325L20.2731 24.75C21.0023 26.3958 21.6012 27.4323 22.07 27.8594C22.4242 28.1823 22.9242 28.3698 23.57 28.4219V29H13.32V28.4219H13.7419C14.5648 28.4219 15.1429 28.3073 15.4762 28.0781C15.7054 27.9115 15.82 27.6719 15.82 27.3594C15.82 27.1719 15.7887 26.9792 15.7262 26.7812C15.7054 26.6875 15.5492 26.2969 15.2575 25.6094L14.1325 22.9688ZM13.6012 21.8125L10.445 14.5156L7.195 21.8125H13.6012ZM41.755 21.7812L47.505 7.8125H56.13V8.39062H55.4425C54.8175 8.39062 54.3175 8.5 53.9425 8.71875C53.6821 8.86458 53.4737 9.10938 53.3175 9.45312C53.2029 9.70312 53.1456 10.3542 53.1456 11.4062V25.375C53.1456 26.4583 53.2029 27.1354 53.3175 27.4062C53.4321 27.6771 53.6665 27.9167 54.0206 28.125C54.3748 28.3229 54.8487 28.4219 55.4425 28.4219H56.13V29H45.0675V28.4219H45.755C46.38 28.4219 46.88 28.3125 47.255 28.0938C47.5154 27.9479 47.7237 27.6979 47.88 27.3438C47.9946 27.0938 48.0519 26.4375 48.0519 25.375V9.67188L39.9269 29H39.5519L31.3019 9.8125V24.7344C31.3019 25.776 31.3279 26.4167 31.38 26.6562C31.5154 27.1771 31.8071 27.6042 32.255 27.9375C32.7133 28.2604 33.4269 28.4219 34.3956 28.4219V29H27.1456V28.4219H27.3644C27.8331 28.4323 28.2706 28.3594 28.6769 28.2031C29.0831 28.0365 29.3904 27.8177 29.5987 27.5469C29.8071 27.276 29.9685 26.8958 30.0831 26.4062C30.104 26.2917 30.1144 25.7604 30.1144 24.8125V11.4062C30.1144 10.3333 30.0571 9.66667 29.9425 9.40625C29.8279 9.13542 29.5935 8.90104 29.2394 8.70312C28.8852 8.49479 28.4112 8.39062 27.8175 8.39062H27.1456V7.8125H35.8019L41.755 21.7812ZM73.5181 17.7656C75.5285 18.2344 76.94 18.8021 77.7525 19.4688C78.9192 20.4167 79.5025 21.6458 79.5025 23.1562C79.5025 24.75 78.8619 26.0677 77.5806 27.1094C76.0077 28.3698 73.7212 29 70.7212 29H59.9556V28.4219C60.9348 28.4219 61.5962 28.3333 61.94 28.1562C62.2942 27.9688 62.539 27.7292 62.6744 27.4375C62.8202 27.1458 62.8931 26.4271 62.8931 25.2812V11.5312C62.8931 10.3854 62.8202 9.66667 62.6744 9.375C62.539 9.07292 62.2942 8.83333 61.94 8.65625C61.5858 8.47917 60.9244 8.39062 59.9556 8.39062V7.8125H70.1119C72.539 7.8125 74.2577 8.03125 75.2681 8.46875C76.2785 8.89583 77.0754 9.54167 77.6587 10.4062C78.2421 11.2604 78.5337 12.1719 78.5337 13.1406C78.5337 14.1615 78.164 15.0729 77.4244 15.875C76.6848 16.6667 75.3827 17.2969 73.5181 17.7656ZM67.8306 17.3438C69.3098 17.3438 70.3983 17.1771 71.0962 16.8438C71.8046 16.5104 72.3462 16.0417 72.7212 15.4375C73.0962 14.8333 73.2837 14.0625 73.2837 13.125C73.2837 12.1875 73.0962 11.4219 72.7212 10.8281C72.3567 10.224 71.8306 9.76562 71.1431 9.45312C70.4556 9.14062 69.3515 8.98958 67.8306 9V17.3438ZM67.8306 18.5625V25.3594L67.815 26.1406C67.815 26.7031 67.9556 27.1302 68.2369 27.4219C68.5285 27.7031 68.9556 27.8438 69.5181 27.8438C70.3515 27.8438 71.1171 27.6615 71.815 27.2969C72.5233 26.9219 73.065 26.3854 73.44 25.6875C73.815 24.9792 74.0025 24.1927 74.0025 23.3281C74.0025 22.3385 73.7733 21.4531 73.315 20.6719C72.8567 19.8802 72.2265 19.3281 71.4244 19.0156C70.6223 18.7031 69.4244 18.5521 67.8306 18.5625ZM94.9062 28.4219V29H83.8281V28.4219H84.5312C85.1458 28.4219 85.6406 28.3125 86.0156 28.0938C86.2865 27.9479 86.4948 27.6979 86.6406 27.3438C86.7552 27.0938 86.8125 26.4375 86.8125 25.375V11.4375C86.8125 10.3542 86.7552 9.67708 86.6406 9.40625C86.526 9.13542 86.2917 8.90104 85.9375 8.70312C85.5938 8.49479 85.125 8.39062 84.5312 8.39062H83.8281V7.8125H94.9062V8.39062H94.2031C93.5885 8.39062 93.0938 8.5 92.7188 8.71875C92.4479 8.86458 92.2344 9.11458 92.0781 9.46875C91.9635 9.71875 91.9062 10.375 91.9062 11.4375V25.375C91.9062 26.4583 91.9635 27.1354 92.0781 27.4062C92.2031 27.6771 92.4375 27.9167 92.7812 28.125C93.1354 28.3229 93.6094 28.4219 94.2031 28.4219H94.9062ZM110.576 7.51562C113.951 7.39062 116.69 8.375 118.794 10.4688C120.909 12.5625 121.966 15.1823 121.966 18.3281C121.966 21.0156 121.18 23.3802 119.607 25.4219C117.524 28.1302 114.581 29.4844 110.779 29.4844C106.966 29.4844 104.018 28.1927 101.935 25.6094C100.289 23.5677 99.4662 21.1458 99.4662 18.3438C99.4662 15.1979 100.534 12.5781 102.669 10.4844C104.815 8.38021 107.451 7.39062 110.576 7.51562ZM110.763 8.51562C108.826 8.51562 107.352 9.50521 106.341 11.4844C105.518 13.1094 105.107 15.4427 105.107 18.4844C105.107 22.099 105.742 24.7708 107.013 26.5C107.899 27.7083 109.138 28.3125 110.732 28.3125C111.805 28.3125 112.701 28.0521 113.419 27.5312C114.336 26.8646 115.05 25.8021 115.56 24.3438C116.07 22.875 116.326 20.9635 116.326 18.6094C116.326 15.8073 116.065 13.7135 115.544 12.3281C115.024 10.9323 114.357 9.94792 113.544 9.375C112.742 8.80208 111.815 8.51562 110.763 8.51562ZM126.433 7.8125H137.37V8.39062H136.823C136 8.39062 135.433 8.47917 135.12 8.65625C134.818 8.82292 134.599 9.05729 134.464 9.35938C134.339 9.66146 134.276 10.4167 134.276 11.625V22C134.276 23.8958 134.417 25.151 134.698 25.7656C134.99 26.3802 135.464 26.8906 136.12 27.2969C136.776 27.7031 137.604 27.9062 138.604 27.9062C139.75 27.9062 140.724 27.651 141.526 27.1406C142.339 26.6198 142.943 25.9062 143.339 25C143.745 24.0938 143.948 22.5156 143.948 20.2656V11.625C143.948 10.6771 143.849 10 143.651 9.59375C143.453 9.1875 143.203 8.90625 142.901 8.75C142.433 8.51042 141.771 8.39062 140.917 8.39062V7.8125H148.245V8.39062H147.808C147.214 8.39062 146.719 8.51042 146.323 8.75C145.927 8.98958 145.641 9.34896 145.464 9.82812C145.328 10.1615 145.261 10.7604 145.261 11.625V19.6719C145.261 22.1615 145.094 23.9583 144.761 25.0625C144.438 26.1667 143.641 27.1823 142.37 28.1094C141.099 29.0365 139.365 29.5 137.167 29.5C135.334 29.5 133.917 29.2552 132.917 28.7656C131.552 28.099 130.589 27.2448 130.026 26.2031C129.464 25.1615 129.183 23.7604 129.183 22V11.625C129.183 10.4062 129.115 9.65104 128.979 9.35938C128.844 9.05729 128.61 8.81771 128.276 8.64062C127.943 8.46354 127.328 8.38021 126.433 8.39062V7.8125ZM166.399 7.32812L166.571 14.3906H165.93C165.628 12.6198 164.883 11.1979 163.696 10.125C162.519 9.04167 161.242 8.5 159.867 8.5C158.805 8.5 157.961 8.78646 157.336 9.35938C156.722 9.92188 156.414 10.5729 156.414 11.3125C156.414 11.7812 156.524 12.1979 156.742 12.5625C157.045 13.0521 157.529 13.5365 158.196 14.0156C158.685 14.3594 159.815 14.9688 161.586 15.8438C164.065 17.0625 165.737 18.2135 166.602 19.2969C167.456 20.3802 167.883 21.6198 167.883 23.0156C167.883 24.7865 167.19 26.3125 165.805 27.5938C164.43 28.8646 162.68 29.5 160.555 29.5C159.888 29.5 159.258 29.4323 158.664 29.2969C158.071 29.1615 157.326 28.9062 156.43 28.5312C155.93 28.3229 155.519 28.2188 155.196 28.2188C154.925 28.2188 154.638 28.3229 154.336 28.5312C154.034 28.7396 153.789 29.0573 153.602 29.4844H153.024V21.4844H153.602C154.06 23.7344 154.94 25.4531 156.242 26.6406C157.555 27.8177 158.966 28.4062 160.477 28.4062C161.644 28.4062 162.571 28.0885 163.258 27.4531C163.956 26.8177 164.305 26.0781 164.305 25.2344C164.305 24.7344 164.17 24.25 163.899 23.7812C163.638 23.3125 163.237 22.8698 162.696 22.4531C162.154 22.026 161.196 21.474 159.821 20.7969C157.894 19.849 156.508 19.0417 155.664 18.375C154.821 17.7083 154.17 16.9635 153.711 16.1406C153.263 15.3177 153.039 14.4115 153.039 13.4219C153.039 11.7344 153.659 10.2969 154.899 9.10938C156.138 7.92188 157.701 7.32812 159.586 7.32812C160.274 7.32812 160.94 7.41146 161.586 7.57812C162.076 7.70312 162.67 7.9375 163.367 8.28125C164.076 8.61458 164.571 8.78125 164.852 8.78125C165.123 8.78125 165.336 8.69792 165.492 8.53125C165.649 8.36458 165.795 7.96354 165.93 7.32812H166.399Z" fill="black"/>
</svg>
